<?xml version="1.0" standalone="no"?><!DOCTYPE svg PUBLIC "-//W3C//DTD SVG 1.1//EN" "http://www.w3.org/Graphics/SVG/1.1/DTD/svg11.dtd"><svg t="1699251990351" class="icon" viewBox="0 0 1024 1024" version="1.1" xmlns="http://www.w3.org/2000/svg" p-id="11934" xmlns:xlink="http://www.w3.org/1999/xlink" width="16" height="16"><path d="M943.104 142.848a238.69184 238.69184 0 0 0-169.216-70.4c-63.488 0-124.416 25.344-169.216 70.4l-133.888 132.096-52.224-51.968c-93.952-91.648-244.48-90.88-337.152 2.048-92.928 92.928-93.44 243.2-1.536 337.152L129.536 611.84l237.056 237.568 107.52-104.192-71.168-49.664c-50.432-35.84-87.808-87.296-105.984-146.688l-24.32-78.848c-11.52-38.144-43.264-66.816-82.432-74.24l-13.312-2.56 15.36-31.232c8.96-18.688 25.6-32.512 45.568-38.144 19.968-5.632 41.216-2.304 58.624 8.96l101.632 65.536c26.112 17.664 61.184 13.568 82.688-9.472L673.28 189.44c16.896-16.896 41.984-22.784 64.768-15.36l17.92 6.4-156.416 173.568 14.592 9.984 131.072-144.896c21.504-22.528 54.784-29.696 83.712-17.92l16.384 6.4-193.024 205.312 16.384 11.264 142.848-156.416c16.128-17.92 41.472-24.064 63.744-15.36l26.624 9.984-188.672 204.544 18.432 8.704 96-108.032c19.456-21.76 50.688-28.16 77.056-15.872l14.08 6.912-524.032 522.24 72.96 71.168 475.136-471.552c93.184-93.696 93.184-244.48 0.256-337.664z" fill="#D81E06" p-id="11935"></path></svg>