<svg t="1720923731375" class="icon" viewBox="0 0 1024 1024" version="1.1" xmlns="http://www.w3.org/2000/svg" p-id="5532" width="200" height="200"><path d="M454.009567 852.360276a25.632397 25.632397 0 0 0-11.356125 49.966952 398.437772 398.437772 0 0 0 64.892145 6.164753H551.347785a426.990316 426.990316 0 0 0 169.69296-32.446072 439.968745 439.968745 0 0 0 232.962802-234.585106 438.346442 438.346442 0 0 0 34.392837-171.639724 466.250064 466.250064 0 0 0-135.949044-332.247784 465.601143 465.601143 0 0 0-147.30517-100.258365 460.08531 460.08531 0 0 0-180.724625-37.312983 484.744326 484.744326 0 0 0-191.75629 38.935287 497.398294 497.398294 0 0 0-261.839806 264.435492A497.722755 497.722755 0 0 0 32.210623 496.426859a521.732848 521.732848 0 0 0 522.057309 525.626377 549.636471 549.636471 0 0 0 298.503868-87.928857 25.69729 25.69729 0 0 0-27.903622-43.153277 497.398294 497.398294 0 0 1-270.924707 80.1418 464.952221 464.952221 0 0 1-182.99585-37.312984 475.334965 475.334965 0 0 1-287.472204-437.373059 451.00041 451.00041 0 0 1 34.392837-171.964186 446.45796 446.45796 0 0 1 94.742533-142.438259 435.750756 435.750756 0 0 1 311.806758-129.78429 408.496055 408.496055 0 0 1 292.014654 121.672772 414.660809 414.660809 0 0 1 121.023851 294.61034 389.352872 389.352872 0 0 1-113.236794 275.791618A382.214736 382.214736 0 0 1 551.347785 858.200569a774.163294 774.163294 0 0 1-97.338218-5.840293z" fill="#ffffff" p-id="5533"></path><path d="M621.431302 483.448429v-109.992186a27.579162 27.579162 0 1 0-55.158323 0v109.992186a27.579162 27.579162 0 1 0 55.158323 0zM291.779204 373.456243v109.992186a27.579162 27.579162 0 0 0 55.158323 0v-109.992186a27.579162 27.579162 0 0 0-55.158323 0z" fill="#ffffff" p-id="5534"></path></svg>