<?xml version="1.0" standalone="no"?><!DOCTYPE svg PUBLIC "-//W3C//DTD SVG 1.1//EN" "http://www.w3.org/Graphics/SVG/1.1/DTD/svg11.dtd"><svg t="1699252168565" class="icon" viewBox="0 0 1024 1024" version="1.1" xmlns="http://www.w3.org/2000/svg" p-id="26595" xmlns:xlink="http://www.w3.org/1999/xlink" width="16" height="16"><path d="M404.15763 544.009481a75.851852 75.851852 0 0 1 75.851851 75.851852v168.296297a75.851852 75.851852 0 0 1-75.851851 75.851851H235.861333a75.851852 75.851852 0 0 1-75.851852-75.851851V619.861333a75.851852 75.851852 0 0 1 75.851852-75.851852h168.296297z m0-384a75.851852 75.851852 0 0 1 75.851851 75.851852v168.296297a75.851852 75.851852 0 0 1-75.851851 75.851851H235.861333a75.851852 75.851852 0 0 1-75.851852-75.851851V235.861333a75.851852 75.851852 0 0 1 75.851852-75.851852h168.296297z" fill="#279CFF" p-id="26596"></path><path d="M544.009481 176.014222m32.009482 0l255.981037 0q32.009481 0 32.009481 32.009482l0-0.018963q0 32.009481-32.009481 32.009481l-255.981037 0q-32.009481 0-32.009482-32.009481l0 0.018963q0-32.009481 32.009482-32.009482Z" fill="#279CFF" fill-opacity=".5" p-id="26597"></path><path d="M544.009481 368.014222m32.009482 0l255.981037 0q32.009481 0 32.009481 32.009482l0-0.018963q0 32.009481-32.009481 32.009481l-255.981037 0q-32.009481 0-32.009482-32.009481l0 0.018963q0-32.009481 32.009482-32.009482Z" fill="#279CFF" fill-opacity=".5" p-id="26598"></path><path d="M544.009481 592.004741m32.009482 0l255.981037 0q32.009481 0 32.009481 32.009481l0-0.018963q0 32.009481-32.009481 32.009482l-255.981037 0q-32.009481 0-32.009482-32.009482l0 0.018963q0-32.009481 32.009482-32.009481Z" fill="#279CFF" fill-opacity=".5" p-id="26599"></path><path d="M544.009481 784.004741m32.009482 0l255.981037 0q32.009481 0 32.009481 32.009481l0-0.018963q0 32.009481-32.009481 32.009482l-255.981037 0q-32.009481 0-32.009482-32.009482l0 0.018963q0-32.009481 32.009482-32.009481Z" fill="#279CFF" fill-opacity=".5" p-id="26600"></path></svg>