<?xml version="1.0" standalone="no"?><!DOCTYPE svg PUBLIC "-//W3C//DTD SVG 1.1//EN" "http://www.w3.org/Graphics/SVG/1.1/DTD/svg11.dtd"><svg t="1699251907810" class="icon" viewBox="0 0 1185 1024" version="1.1" xmlns="http://www.w3.org/2000/svg" p-id="8511" xmlns:xlink="http://www.w3.org/1999/xlink" width="18.515625" height="16"><path d="M145.613674 533.58286a450.82307 372.419058 0 1 0 901.646139 0 450.82307 372.419058 0 1 0-901.646139 0Z" fill="#00D2AA" p-id="8512"></path><path d="M169.570455 2.177889m43.557785 0l631.587875 0q43.557785 0 43.557785 43.557785l0 344.106498q0 43.557785-43.557785 43.557784l-631.587875 0q-43.557785 0-43.557785-43.557784l0-344.106498q0-43.557785 43.557785-43.557785Z" fill="#00AFFF" p-id="8513"></path><path d="M844.716115 435.577845h-631.587875a45.779232 45.779232 0 0 1-45.735674-45.735673v-344.106498A45.779232 45.779232 0 0 1 213.12824 0h631.587875a45.779232 45.779232 0 0 1 45.735674 45.735674v344.106498a45.779232 45.779232 0 0 1-45.735674 45.735673z m-631.587875-431.222067a41.423453 41.423453 0 0 0-41.379896 41.379896v344.106498a41.423453 41.423453 0 0 0 41.379896 41.379895h631.587875a41.423453 41.423453 0 0 0 41.379896-41.379895v-344.106498a41.423453 41.423453 0 0 0-41.379896-41.379896z" fill="#0069C4" p-id="8514"></path><path d="M461.407611 433.399956h126.317576v65.336677h-126.317576z" fill="#FFFFFF" p-id="8515"></path><path d="M589.903076 500.914522h-130.673354V431.222067h130.673354z m-126.317575-4.355778h121.961796v-60.980899h-121.961796z" fill="#0069C4" p-id="8516"></path><path d="M361.224707 496.558744h326.683384a2.177889 2.177889 0 0 1 2.177889 2.177889 2.177889 2.177889 0 0 1-2.177889 2.177889h-326.683384a2.177889 2.177889 0 0 1-2.177889-2.177889 2.177889 2.177889 0 0 1 2.177889-2.177889z" fill="#0069C4" p-id="8517"></path><path d="M838.182448 28.31256a23.956781 23.956781 0 0 1 23.956781 23.956781v326.683384a10.845888 10.845888 0 0 1-10.889446 10.889447h-644.655211a10.845888 10.845888 0 0 1-10.889446-10.889447V52.269341a23.956781 23.956781 0 0 1 23.956781-23.956781h618.520541z" fill="#FFFFFF" p-id="8518"></path><path d="M851.249783 392.020061h-644.655211a13.067335 13.067335 0 0 1-13.067335-13.067336V52.269341a26.134671 26.134671 0 0 1 26.13467-26.13467h618.520541a26.134671 26.134671 0 0 1 26.13467 26.13467v326.683384a13.067335 13.067335 0 0 1-13.067335 13.067336z m-631.587876-361.529612a21.778892 21.778892 0 0 0-21.778892 21.778892v326.683384a8.711557 8.711557 0 0 0 8.711557 8.711557h644.655211a8.711557 8.711557 0 0 0 8.711557-8.711557V52.269341a21.778892 21.778892 0 0 0-21.778892-21.778892z" fill="#0069C4" p-id="8519"></path><path d="M247.974467 76.226123m8.711557 0l152.452246 0q8.711557 0 8.711557 8.711557l0 74.048234q0 8.711557-8.711557 8.711556l-152.452246 0q-8.711557 0-8.711557-8.711556l0-74.048234q0-8.711557 8.711557-8.711557Z" fill="#00D2AA" p-id="8520"></path><path d="M409.13827 169.87536h-152.452246a10.889446 10.889446 0 0 1-10.889446-10.889446v-74.048234a10.889446 10.889446 0 0 1 10.889446-10.889446h152.452246a10.889446 10.889446 0 0 1 10.889446 10.889446v74.048234a10.889446 10.889446 0 0 1-10.889446 10.889446z m-152.452246-91.471348a6.533668 6.533668 0 0 0-6.533667 6.533668v74.048234a6.533668 6.533668 0 0 0 6.533667 6.533667h152.452246a6.533668 6.533668 0 0 0 6.533668-6.533667v-74.048234a6.533668 6.533668 0 0 0-6.533668-6.533668z" fill="#0069C4" p-id="8521"></path><path d="M247.974467 241.745704m8.711557 0l152.452246 0q8.711557 0 8.711557 8.711557l0 74.048234q0 8.711557-8.711557 8.711557l-152.452246 0q-8.711557 0-8.711557-8.711557l0-74.048234q0-8.711557 8.711557-8.711557Z" fill="#00D2AA" p-id="8522"></path><path d="M409.13827 335.394941h-152.452246a10.889446 10.889446 0 0 1-10.889446-10.889446v-74.048234a10.889446 10.889446 0 0 1 10.889446-10.889446h152.452246a10.889446 10.889446 0 0 1 10.889446 10.889446v74.048234a10.889446 10.889446 0 0 1-10.889446 10.889446z m-152.452246-91.471348a6.533668 6.533668 0 0 0-6.533667 6.533668v74.048234a6.533668 6.533668 0 0 0 6.533667 6.533667h152.452246a6.533668 6.533668 0 0 0 6.533668-6.533667v-74.048234a6.533668 6.533668 0 0 0-6.533668-6.533668z" fill="#0069C4" p-id="8523"></path><path d="M452.696055 91.471348h265.702485a2.177889 2.177889 0 0 1 2.177889 2.177889 2.177889 2.177889 0 0 1-2.177889 2.177889h-265.702485a2.177889 2.177889 0 0 1-2.17789-2.177889 2.177889 2.177889 0 0 1 2.17789-2.177889z" fill="#0069C4" p-id="8524"></path><path d="M452.696055 256.990929h265.702485a2.177889 2.177889 0 0 1 2.177889 2.177889 2.177889 2.177889 0 0 1-2.177889 2.177889h-265.702485a2.177889 2.177889 0 0 1-2.17789-2.177889 2.177889 2.177889 0 0 1 2.17789-2.177889zM452.696055 121.961797h265.702485a2.177889 2.177889 0 0 1 2.177889 2.177889 2.177889 2.177889 0 0 1-2.177889 2.177889h-265.702485a2.177889 2.177889 0 0 1-2.17789-2.177889 2.177889 2.177889 0 0 1 2.17789-2.177889zM452.696055 287.481378h265.702485a2.177889 2.177889 0 0 1 2.177889 2.177889 2.177889 2.177889 0 0 1-2.177889 2.177889h-265.702485a2.177889 2.177889 0 0 1-2.17789-2.177889 2.177889 2.177889 0 0 1 2.17789-2.177889zM452.696055 152.452246h265.702485a2.177889 2.177889 0 0 1 2.177889 2.177889 2.177889 2.177889 0 0 1-2.177889 2.177889h-265.702485a2.177889 2.177889 0 0 1-2.17789-2.177889 2.177889 2.177889 0 0 1 2.17789-2.177889z" fill="#0069C4" p-id="8525"></path><path d="M452.696055 317.971827h265.702485a2.177889 2.177889 0 0 1 2.177889 2.177889 2.177889 2.177889 0 0 1-2.177889 2.177889h-265.702485a2.177889 2.177889 0 0 1-2.17789-2.177889 2.177889 2.177889 0 0 1 2.17789-2.177889z" fill="#0069C4" p-id="8526"></path><path d="M247.974467 209.077366h561.895421a2.177889 2.177889 0 0 1 2.177889 2.177889 2.177889 2.177889 0 0 1-2.177889 2.177889h-561.895421a2.177889 2.177889 0 0 1-2.177889-2.177889 2.177889 2.177889 0 0 1 2.177889-2.177889z" fill="#0069C4" p-id="8527"></path><path d="M731.465876 124.139686m43.557784 0l252.63515 0q43.557785 0 43.557785 43.557784l0 304.904492q0 43.557785-43.557785 43.557785l-252.63515 0q-43.557785 0-43.557784-43.557785l0-304.904492q0-43.557785 43.557784-43.557784Z" fill="#00D2AA" p-id="8528"></path><path d="M1027.65881 518.337636h-252.63515a45.779232 45.779232 0 0 1-45.735674-45.735674v-304.904492a45.779232 45.779232 0 0 1 45.735674-45.735673h252.63515a45.779232 45.779232 0 0 1 45.735674 45.735673v304.904492a45.779232 45.779232 0 0 1-45.735674 45.735674z m-252.63515-392.020061a41.423453 41.423453 0 0 0-41.379895 41.379895v304.904492a41.423453 41.423453 0 0 0 41.379895 41.379895h252.63515a41.423453 41.423453 0 0 0 41.379896-41.379895v-304.904492a41.423453 41.423453 0 0 0-41.379896-41.379895z" fill="#0069C4" p-id="8529"></path><path d="M761.956325 154.630135m8.711557 0l261.346707 0q8.711557 0 8.711557 8.711557l0 287.481378q0 8.711557-8.711557 8.711557l-261.346707 0q-8.711557 0-8.711557-8.711557l0-287.481378q0-8.711557 8.711557-8.711557Z" fill="#FFFFFF" p-id="8530"></path><path d="M1032.014589 461.712516h-261.346707a10.889446 10.889446 0 0 1-10.889446-10.889446v-287.481378a10.889446 10.889446 0 0 1 10.889446-10.889446h261.346707a10.889446 10.889446 0 0 1 10.889446 10.889446v287.481378a10.889446 10.889446 0 0 1-10.889446 10.889446z m-261.346707-304.904492a6.533668 6.533668 0 0 0-6.533668 6.533668v287.481378a6.533668 6.533668 0 0 0 6.533668 6.533668h261.346707a6.533668 6.533668 0 0 0 6.533667-6.533668v-287.481378a6.533668 6.533668 0 0 0-6.533667-6.533668z" fill="#0069C4" p-id="8531"></path><path d="M875.206564 485.669297h52.269342a2.177889 2.177889 0 0 1 2.177889 2.17789 2.177889 2.177889 0 0 1-2.177889 2.177889h-52.269342a2.177889 2.177889 0 0 1-2.177889-2.177889 2.177889 2.177889 0 0 1 2.177889-2.17789zM796.802552 213.433144h209.077366a2.177889 2.177889 0 0 1 2.177889 2.177889 2.177889 2.177889 0 0 1-2.177889 2.17789h-209.077366a2.177889 2.177889 0 0 1-2.177889-2.17789 2.177889 2.177889 0 0 1 2.177889-2.177889z" fill="#0069C4" p-id="8532"></path><path d="M796.802552 400.731618h209.077366a2.177889 2.177889 0 0 1 2.177889 2.177889 2.177889 2.177889 0 0 1-2.177889 2.177889h-209.077366a2.177889 2.177889 0 0 1-2.177889-2.177889 2.177889 2.177889 0 0 1 2.177889-2.177889zM796.802552 309.26027h209.077366a2.177889 2.177889 0 0 1 2.177889 2.177889 2.177889 2.177889 0 0 1-2.177889 2.17789h-209.077366a2.177889 2.177889 0 0 1-2.177889-2.17789 2.177889 2.177889 0 0 1 2.177889-2.177889zM875.206564 191.654252h130.673354a2.177889 2.177889 0 0 1 2.177889 2.177889 2.177889 2.177889 0 0 1-2.177889 2.177889h-130.673354a2.177889 2.177889 0 0 1-2.177889-2.177889 2.177889 2.177889 0 0 1 2.177889-2.177889zM931.831684 422.51051h74.048234a2.177889 2.177889 0 0 1 2.177889 2.177889 2.177889 2.177889 0 0 1-2.177889 2.177889h-74.048234a2.177889 2.177889 0 0 1-2.177889-2.177889 2.177889 2.177889 0 0 1 2.177889-2.177889zM796.802552 422.51051h74.048234a2.177889 2.177889 0 0 1 2.177889 2.177889 2.177889 2.177889 0 0 1-2.177889 2.177889h-74.048234a2.177889 2.177889 0 0 1-2.177889-2.177889 2.177889 2.177889 0 0 1 2.177889-2.177889zM796.802552 191.654252h56.62512a2.177889 2.177889 0 0 1 2.177889 2.177889 2.177889 2.177889 0 0 1-2.177889 2.177889h-56.62512a2.177889 2.177889 0 0 1-2.177889-2.177889 2.177889 2.177889 0 0 1 2.177889-2.177889z" fill="#0069C4" p-id="8533"></path><path d="M875.206564 237.389926m8.711557 0l34.846228 0q8.711557 0 8.711557 8.711557l0 26.13467q0 8.711557-8.711557 8.711557l-34.846228 0q-8.711557 0-8.711557-8.711557l0-26.13467q0-8.711557 8.711557-8.711557Z" fill="#00AFFF" p-id="8534"></path><path d="M918.764349 283.125599h-34.846228a10.889446 10.889446 0 0 1-10.889446-10.889446v-26.13467a10.889446 10.889446 0 0 1 10.889446-10.889447h34.846228a10.889446 10.889446 0 0 1 10.889446 10.889447v26.13467a10.889446 10.889446 0 0 1-10.889446 10.889446z m-34.846228-43.557784a6.533668 6.533668 0 0 0-6.533667 6.533668v26.13467a6.533668 6.533668 0 0 0 6.533667 6.533668h34.846228a6.533668 6.533668 0 0 0 6.533668-6.533668v-26.13467a6.533668 6.533668 0 0 0-6.533668-6.533668z" fill="#0069C4" p-id="8535"></path><path d="M875.206564 341.928609m8.711557 0l34.846228 0q8.711557 0 8.711557 8.711556l0 26.134671q0 8.711557-8.711557 8.711557l-34.846228 0q-8.711557 0-8.711557-8.711557l0-26.134671q0-8.711557 8.711557-8.711556Z" fill="#00AFFF" p-id="8536"></path><path d="M918.764349 387.664282h-34.846228a10.889446 10.889446 0 0 1-10.889446-10.889446v-26.134671a10.889446 10.889446 0 0 1 10.889446-10.889446h34.846228a10.889446 10.889446 0 0 1 10.889446 10.889446v26.134671a10.889446 10.889446 0 0 1-10.889446 10.889446z m-34.846228-43.557784a6.533668 6.533668 0 0 0-6.533667 6.533667v26.134671a6.533668 6.533668 0 0 0 6.533667 6.533668h34.846228a6.533668 6.533668 0 0 0 6.533668-6.533668v-26.134671a6.533668 6.533668 0 0 0-6.533668-6.533667z" fill="#0069C4" p-id="8537"></path><path d="M661.77342 254.813039m21.778893 0l139.38491 0q21.778892 0 21.778892 21.778893l0 226.500479q0 21.778892-21.778892 21.778893l-139.38491 0q-21.778892 0-21.778893-21.778893l0-226.500479q0-21.778892 21.778893-21.778893Z" fill="#FFFFFF" p-id="8538"></path><path d="M822.937223 527.049193h-139.38491a24.000339 24.000339 0 0 1-23.956782-23.956782v-226.500479a24.000339 24.000339 0 0 1 23.956782-23.956782h139.38491a24.000339 24.000339 0 0 1 23.956782 23.956782v226.500479a24.000339 24.000339 0 0 1-23.956782 23.956782z m-139.38491-270.058264a19.644561 19.644561 0 0 0-19.601003 19.601003v226.500479a19.644561 19.644561 0 0 0 19.601003 19.601003h139.38491a19.644561 19.644561 0 0 0 19.601003-19.601003v-226.500479a19.644561 19.644561 0 0 0-19.601003-19.601003z" fill="#0069C4" p-id="8539"></path><path d="M844.716115 490.025076v15.245225a19.644561 19.644561 0 0 1-19.601003 19.601003h-143.740689a19.644561 19.644561 0 0 1-19.601003-19.601003v-15.245225z" fill="#00AFFF" p-id="8540"></path><path d="M825.115112 527.049193h-143.740689a21.778892 21.778892 0 0 1-21.778892-21.778892v-17.423114h187.298474v17.423114a21.778892 21.778892 0 0 1-21.778893 21.778892z m-161.163802-34.846228v13.067336a17.423114 17.423114 0 0 0 17.423113 17.423113h143.740689a17.423114 17.423114 0 0 0 17.423114-17.423113v-13.067336z" fill="#0069C4" p-id="8541"></path><path d="M709.686983 315.793938m8.711557 0l69.692455 0q8.711557 0 8.711557 8.711557l0 52.269341q0 8.711557-8.711557 8.711557l-69.692455 0q-8.711557 0-8.711557-8.711557l0-52.269341q0-8.711557 8.711557-8.711557Z" fill="#00D2AA" p-id="8542"></path><path d="M788.090995 387.664282h-69.692455a10.889446 10.889446 0 0 1-10.889446-10.889446v-52.269341a10.889446 10.889446 0 0 1 10.889446-10.889446h69.692455a10.889446 10.889446 0 0 1 10.889447 10.889446v52.269341a10.889446 10.889446 0 0 1-10.889447 10.889446z m-69.692455-69.692455a6.533668 6.533668 0 0 0-6.533667 6.533668v52.269341a6.533668 6.533668 0 0 0 6.533667 6.533668h69.692455a6.533668 6.533668 0 0 0 6.533668-6.533668v-52.269341a6.533668 6.533668 0 0 0-6.533668-6.533668z" fill="#0069C4" p-id="8543"></path><path d="M692.263869 409.443175h121.961797a2.177889 2.177889 0 0 1 2.177889 2.177889 2.177889 2.177889 0 0 1-2.177889 2.177889h-121.961797a2.177889 2.177889 0 0 1-2.177889-2.177889 2.177889 2.177889 0 0 1 2.177889-2.177889z" fill="#0069C4" p-id="8544"></path><path d="M692.263869 431.222067h95.827126a2.177889 2.177889 0 0 1 2.17789 2.177889 2.177889 2.177889 0 0 1-2.17789 2.177889h-95.827126a2.177889 2.177889 0 0 1-2.177889-2.177889 2.177889 2.177889 0 0 1 2.177889-2.177889zM692.263869 453.000959h113.25024a2.177889 2.177889 0 0 1 2.177889 2.177889 2.177889 2.177889 0 0 1-2.177889 2.17789h-113.25024a2.177889 2.177889 0 0 1-2.177889-2.17789 2.177889 2.177889 0 0 1 2.177889-2.177889z" fill="#0069C4" p-id="8545"></path><path d="M825.115112 254.813039a19.644561 19.644561 0 0 1 19.601003 19.601004v15.245224h-182.942695V274.414043a19.644561 19.644561 0 0 1 19.601003-19.601004h143.740689z" fill="#00AFFF" p-id="8546"></path><path d="M846.894005 291.837156h-187.298474v-17.423113a21.778892 21.778892 0 0 1 21.778892-21.778893h143.740689a21.778892 21.778892 0 0 1 21.778893 21.778893z m-182.942695-4.355778h178.586916v-13.067335a17.423114 17.423114 0 0 0-17.423114-17.423114h-143.740689a17.423114 17.423114 0 0 0-17.423113 17.423114z" fill="#0069C4" p-id="8547"></path><path d="M639.994528 627.232097a60.980898 50.091452 0 1 0 121.961797 0 60.980898 50.091452 0 1 0-121.961797 0Z" fill="#FFFFFF" p-id="8548"></path><path d="M700.975426 679.501439c-34.846228 0-63.158788-23.434088-63.158787-52.269342s28.356118-52.269341 63.158787-52.269341 63.158788 23.434088 63.158788 52.269341-28.31256 52.269341-63.158788 52.269342z m0-100.182905c-32.406992 0-58.803009 21.517546-58.803009 47.913563s26.396017 47.913563 58.803009 47.913563 58.803009-21.473988 58.80301-47.913563-26.35246-47.913563-58.80301-47.913563z" fill="#0069C4" p-id="8549"></path><path d="M639.994528 897.290361a60.980898 50.091452 0 1 0 121.961797 0 60.980898 50.091452 0 1 0-121.961797 0Z" fill="#FFFFFF" p-id="8550"></path><path d="M700.975426 949.559703c-34.846228 0-63.158788-23.434088-63.158787-52.269342s28.356118-52.269341 63.158787-52.269341 63.158788 23.434088 63.158788 52.269341-28.31256 52.269341-63.158788 52.269342z m0-100.182905c-32.406992 0-58.803009 21.517546-58.803009 47.913563s26.396017 47.913563 58.803009 47.913563 58.803009-21.473988 58.80301-47.913563-26.35246-47.913563-58.80301-47.913563z" fill="#0069C4" p-id="8551"></path><path d="M639.994528 762.261229a60.980898 50.091452 0 1 0 121.961797 0 60.980898 50.091452 0 1 0-121.961797 0Z" fill="#FFFFFF" p-id="8552"></path><path d="M700.975426 814.530571c-34.846228 0-63.158788-23.434088-63.158787-52.269342s28.356118-52.269341 63.158787-52.269341 63.158788 23.434088 63.158788 52.269341-28.31256 52.269341-63.158788 52.269342z m0-100.182905c-32.406992 0-58.803009 21.517546-58.803009 47.913563s26.396017 47.913563 58.803009 47.913563 58.803009-21.473988 58.80301-47.913563-26.35246-47.913563-58.80301-47.913563z" fill="#0069C4" p-id="8553"></path><path d="M805.514109 590.20798m8.711557 0l304.904492 0q8.711557 0 8.711557 8.711557l0 52.269342q0 8.711557-8.711557 8.711557l-304.904492 0q-8.711557 0-8.711557-8.711557l0-52.269342q0-8.711557 8.711557-8.711557Z" fill="#00AFFF" p-id="8554"></path><path d="M1119.130158 662.078325h-304.904492a10.889446 10.889446 0 0 1-10.889446-10.889446v-52.269342a10.889446 10.889446 0 0 1 10.889446-10.889446h304.904492a10.889446 10.889446 0 0 1 10.889446 10.889446v52.269342a10.889446 10.889446 0 0 1-10.889446 10.889446z m-304.904492-69.692455a6.533668 6.533668 0 0 0-6.533668 6.533667v52.269342a6.533668 6.533668 0 0 0 6.533668 6.533667h304.904492a6.533668 6.533668 0 0 0 6.533668-6.533667v-52.269342a6.533668 6.533668 0 0 0-6.533668-6.533667z" fill="#0069C4" p-id="8555"></path><path d="M805.514109 868.977801m8.711557 0l304.904492 0q8.711557 0 8.711557 8.711557l0 52.269342q0 8.711557-8.711557 8.711557l-304.904492 0q-8.711557 0-8.711557-8.711557l0-52.269342q0-8.711557 8.711557-8.711557Z" fill="#00AFFF" p-id="8556"></path><path d="M1119.130158 940.848146h-304.904492a10.889446 10.889446 0 0 1-10.889446-10.889446v-52.269342a10.889446 10.889446 0 0 1 10.889446-10.889446h304.904492a10.889446 10.889446 0 0 1 10.889446 10.889446v52.269342a10.889446 10.889446 0 0 1-10.889446 10.889446z m-304.904492-69.692455a6.533668 6.533668 0 0 0-6.533668 6.533667v52.269342a6.533668 6.533668 0 0 0 6.533668 6.533667h304.904492a6.533668 6.533668 0 0 0 6.533668-6.533667v-52.269342a6.533668 6.533668 0 0 0-6.533668-6.533667z" fill="#0069C4" p-id="8557"></path><path d="M805.514109 686.035106m8.711557 0l335.394941 0q8.711557 0 8.711557 8.711557l0 135.029132q0 8.711557-8.711557 8.711557l-335.394941 0q-8.711557 0-8.711557-8.711557l0-135.029132q0-8.711557 8.711557-8.711557Z" fill="#FFFFFF" p-id="8558"></path><path d="M1149.620607 840.665241h-335.394941a10.889446 10.889446 0 0 1-10.889446-10.889446v-135.029132a10.889446 10.889446 0 0 1 10.889446-10.889446h335.394941a10.889446 10.889446 0 0 1 10.889446 10.889446v135.029132a10.889446 10.889446 0 0 1-10.889446 10.889446z m-335.394941-152.452245a6.533668 6.533668 0 0 0-6.533668 6.533667v135.029132a6.533668 6.533668 0 0 0 6.533668 6.533668h335.394941a6.533668 6.533668 0 0 0 6.533668-6.533668v-135.029132a6.533668 6.533668 0 0 0-6.533668-6.533667z" fill="#0069C4" p-id="8559"></path><path d="M844.716115 723.059223h65.336677a2.177889 2.177889 0 0 1 2.177889 2.177889 2.177889 2.177889 0 0 1-2.177889 2.17789h-65.336677a2.177889 2.177889 0 0 1-2.177889-2.17789 2.177889 2.177889 0 0 1 2.177889-2.177889z" fill="#0069C4" p-id="8560"></path><path d="M844.716115 792.751678h143.740689a2.177889 2.177889 0 0 1 2.177889 2.17789 2.177889 2.177889 0 0 1-2.177889 2.177889h-143.740689a2.177889 2.177889 0 0 1-2.177889-2.177889 2.177889 2.177889 0 0 1 2.177889-2.17789zM844.716115 757.905451h182.942695a2.177889 2.177889 0 0 1 2.17789 2.177889 2.177889 2.177889 0 0 1-2.17789 2.177889h-182.942695a2.177889 2.177889 0 0 1-2.177889-2.177889 2.177889 2.177889 0 0 1 2.177889-2.177889z" fill="#0069C4" p-id="8561"></path><path d="M931.831684 723.059223h65.336677a2.177889 2.177889 0 0 1 2.177889 2.177889 2.177889 2.177889 0 0 1-2.177889 2.17789h-65.336677a2.177889 2.177889 0 0 1-2.177889-2.17789 2.177889 2.177889 0 0 1 2.177889-2.177889z" fill="#0069C4" p-id="8562"></path><path d="M1018.947253 723.059223h100.182905a2.177889 2.177889 0 0 1 2.177889 2.177889 2.177889 2.177889 0 0 1-2.177889 2.17789h-100.182905a2.177889 2.177889 0 0 1-2.177889-2.17789 2.177889 2.177889 0 0 1 2.177889-2.177889z" fill="#0069C4" p-id="8563"></path><path d="M671.573922 762.261229a29.401505 23.956781 0 1 0 58.803009 0 29.401505 23.956781 0 1 0-58.803009 0Z" fill="#00D2AA" p-id="8564"></path><path d="M700.975426 788.3959c-17.423114 0-31.579394-11.717044-31.579393-26.134671s14.15628-26.134671 31.579393-26.13467 31.579394 11.717044 31.579394 26.13467-14.15628 26.134671-31.579394 26.134671z m0-47.913563c-15.027436 0-27.223615 9.756944-27.223615 21.778892s12.19618 21.778892 27.223615 21.778892 27.223615-9.756944 27.223616-21.778892-12.19618-21.778892-27.223616-21.778892z" fill="#0069C4" p-id="8565"></path><path d="M881.740232 821.151354c0-8.711557 4.617125-11.020119 13.328682-6.620783l87.856052 57.583391q10.453868 6.185205 3.092602 11.804159l-22.345143 10.976562q-7.66617 2.700583-5.488281 6.795014l33.713725 52.530689a5.531839 5.531839 0 0 1-2.700582 7.927516l-15.506572 8.188864a8.014632 8.014632 0 0 1-11.847717-3.049045L929.784469 914.713475q-3.528181-5.226934-7.971075-2.74414l-20.167254 9.539154q-13.720702 5.183376-14.678974-6.838572t-5.226934-93.518563z" fill="#FFFFFF" p-id="8566"></path><path d="M968.68157 973.908504a10.105406 10.105406 0 0 1-8.711557-5.488281L927.78081 915.671746c-2.395678-3.484623-4.13799-2.526352-5.052703-1.9601l-20.080138 9.713386a14.94032 14.94032 0 0 1-13.067336 0.39202 11.020119 11.020119 0 0 1-4.355778-9.016461c-0.696925-8.05819-2.439236-38.679313-5.31405-93.605679a10.933004 10.933004 0 0 1 4.355779-9.931175c2.918372-1.742311 6.925688-1.306734 12.239737 1.393849l88.117398 57.714064c4.573567 2.74414 6.925688 5.531839 7.099919 8.711557a8.188863 8.188863 0 0 1-3.876643 6.838572l-22.737163 11.194351c-3.876643 1.393849-4.573567 2.526352-4.704241 2.831256a1.263176 1.263176 0 0 0 0 0.958271l33.62661 52.269342a7.709728 7.709728 0 0 1-3.528181 11.020119l-15.463013 8.188864a13.067335 13.067335 0 0 1-6.359437 1.524522z m-44.080478-65.336677a8.711557 8.711557 0 0 1 7.012803 4.355779l32.102088 52.835593a5.836743 5.836743 0 0 0 8.972903 2.265004l15.506572-8.188863a3.441065 3.441065 0 0 0 1.698753-5.139819l-33.539494-52.269341a5.488281 5.488281 0 0 1-0.479136-4.747799c0.827598-2.177889 3.13616-3.876643 7.056362-5.270492l22.127354-10.889446c0.696925-0.566251 1.916543-1.742311 1.829427-2.874814s-1.916543-3.223276-5.052703-5.09626l-87.986725-57.626949c-3.484623-1.785869-6.359437-2.308563-7.840401-1.437407s-2.047216 3.876643-2.090774 6.185205c2.831256 54.055211 4.617125 85.460373 5.270492 93.344333a7.099919 7.099919 0 0 0 2.482794 5.706069 11.325024 11.325024 0 0 0 9.277808-0.696924l19.905908-9.626271a7.622612 7.622612 0 0 1 3.745969-0.609809z" fill="#0069C4" p-id="8567"></path><path d="M21.386872 639.341161a2.134331 2.134331 0 0 1-2.090773-1.742311 531.971222 531.971222 0 0 1-9.016462-56.102427 2.177889 2.177889 0 1 1 4.355779-0.435577 536.065654 536.065654 0 0 0 8.885788 55.62329 2.177889 2.177889 0 0 1-1.655196 2.613468zM10.889446 566.251199a2.134331 2.134331 0 0 1-2.177889-2.177889c-0.78404-10.976562-1.17606-22.040239-1.17606-32.84257 0-8.014632 0.217789-16.072822 0.653366-24.000339a2.134331 2.134331 0 0 1 2.265005-2.047216 2.177889 2.177889 0 0 1 2.090774 2.265005c-0.435578 7.840401-0.653367 15.855034-0.653367 23.78255 0 10.671657 0.39202 21.778892 1.132503 32.537665a2.177889 2.177889 0 0 1-2.003659 2.35212z m0.78404-74.048234h-0.217789a2.221447 2.221447 0 0 1-1.9601-2.395678 430.263796 430.263796 0 0 1 9.103577-56.145984 2.177889 2.177889 0 0 1 2.657025-1.611638 2.177889 2.177889 0 0 1 1.611638 2.613467 412.274431 412.274431 0 0 0-9.016462 55.536175 2.177889 2.177889 0 0 1-2.177889 2.003658z m13.37224-72.7415h-0.566251a2.177889 2.177889 0 0 1-1.524523-2.700583 424.209264 424.209264 0 0 1 18.947637-53.706748 2.177889 2.177889 0 0 1 4.007316 1.742311 422.249163 422.249163 0 0 0-18.773405 53.053382 2.177889 2.177889 0 0 1-2.090774 1.611638z m26.134671-69.21332a1.829427 1.829427 0 0 1-0.958271 0 2.177889 2.177889 0 0 1-1.001829-2.918371 458.619913 458.619913 0 0 1 27.70275-49.830106 2.221447 2.221447 0 0 1 3.049045-0.653366 2.265005 2.265005 0 0 1 0.653367 3.049044 446.29306 446.29306 0 0 0-27.52852 49.133181 2.177889 2.177889 0 0 1-1.9601 1.219618z m37.329021-63.855712a2.265005 2.265005 0 0 1-1.263176-0.39202 2.177889 2.177889 0 0 1-0.566251-2.874814 539.201815 539.201815 0 0 1 34.846228-44.864518 2.177889 2.177889 0 1 1 3.310391 2.874814 530.4467 530.4467 0 0 0-34.846227 44.472498 2.134331 2.134331 0 0 1-1.524523 0.78404z" fill="#0069C4" p-id="8568"></path><path d="M1181.41779 586.723358h-0.217789a2.221447 2.221447 0 0 1-1.960101-2.395679c0.566251-5.749628 1.001829-11.586371 1.39385-17.423113a2.047216 2.047216 0 0 1 2.308562-2.003658 2.134331 2.134331 0 0 1 2.003658 2.308562c-0.348462 5.749628-0.78404 11.586371-1.350291 17.423114a2.265005 2.265005 0 0 1-2.177889 2.090774z m2.134331-34.846228a2.221447 2.221447 0 0 1-2.134331-2.221447v-13.067335c0-14.5483-0.653367-29.0966-2.047216-43.557785a2.177889 2.177889 0 0 1 4.355778-0.39202c1.350291 14.330511 2.047216 29.053042 2.047216 43.557785v13.067335a2.177889 2.177889 0 0 1-2.221447 2.700583z m-3.876643-74.048234a2.177889 2.177889 0 0 1-2.134331-1.872984 435.316499 435.316499 0 0 0-11.150793-55.144156 2.177889 2.177889 0 1 1 4.355779-1.17606 429.871775 429.871775 0 0 1 11.281466 55.753964 2.177889 2.177889 0 0 1-1.872985 2.439236z m-16.11638-72.131691a2.177889 2.177889 0 0 1-2.047216-1.524522 438.62689 438.62689 0 0 0-20.428601-52.269342 2.177889 2.177889 0 0 1 1.088945-2.874814 2.134331 2.134331 0 0 1 2.874814 1.045387 439.933624 439.933624 0 0 1 20.602832 53.009824 2.134331 2.134331 0 0 1-1.393849 2.700583 1.9601 1.9601 0 0 1-0.696925 0.174231z m-28.138329-68.385722a2.134331 2.134331 0 0 1-1.916542-1.219618 489.284594 489.284594 0 0 0-28.617465-48.523372 2.177889 2.177889 0 0 1 3.615296-2.439235 498.780191 498.780191 0 0 1 28.878812 49.002507 2.177889 2.177889 0 0 1-0.958272 2.918372 2.003658 2.003658 0 0 1-1.001829 0.522693z" fill="#0069C4" p-id="8569"></path><path d="M595.52203 1023.999956a653.366768 653.366768 0 0 1-43.557784-1.437406 2.177889 2.177889 0 1 1 0.304904-4.355779c18.642732 1.219618 37.590368 1.698754 56.62512 1.306734a2.134331 2.134331 0 0 1 2.221447 2.134331 2.221447 2.221447 0 0 1-2.134332 2.221447z m30.490449-0.696924a2.177889 2.177889 0 0 1 0-4.355779c18.512058-0.827598 37.416137-2.482794 56.189542-4.878471a2.177889 2.177889 0 0 1 0.566251 4.355778c-18.904078 2.395678-37.93883 4.050874-56.625119 4.878472z m-91.471347-2.134332c-18.773405-1.742311-37.677484-4.355778-56.276658-7.753285a2.177889 2.177889 0 0 1-1.742311-2.526352 2.221447 2.221447 0 0 1 2.526351-1.742311c18.468501 3.353949 37.241906 5.923859 55.884638 7.66617a2.177889 2.177889 0 0 1 0 4.355778z m164.996888-5.139818a2.177889 2.177889 0 0 1-0.348463-4.355779c18.29427-2.787698 36.937001-6.315879 55.44906-10.584541a2.134331 2.134331 0 0 1 2.613467 1.611638 2.177889 2.177889 0 0 1-1.611638 2.613467c-18.642732 4.355778-37.416137 7.883959-55.797522 10.671657z m72.523711-14.722531a2.177889 2.177889 0 0 1-2.134332-1.655196 2.177889 2.177889 0 0 1 1.611638-2.613467c14.591858-3.702412 29.48862-7.927517 44.211152-12.544642a2.177889 2.177889 0 1 1 1.306733 4.137989c-14.809647 4.660683-29.793525 8.711557-44.472498 12.5882z" fill="#0069C4" p-id="8570"></path><path d="M217.788923 714.696129l-66.207833-61.590708c-1.611638-2.482794-0.348462-3.702412 3.74597-3.702411 6.141648 0 228.373464-10.497426 236.91079 38.940659Q400.731618 737.825312 217.788923 714.696129z" fill="#00AFFF" p-id="8571"></path><path d="M315.184129 724.278841A799.546693 799.546693 0 0 1 217.788923 716.83046h-0.696925l-67.340335-62.548979a4.355778 4.355778 0 0 1-0.609809-4.660683c1.17606-2.177889 4.094432-2.395678 6.185206-2.395678h3.266833c68.385722-2.221447 228.242791-2.74414 235.821846 40.90076a21.778892 21.778892 0 0 1-5.70607 19.731676c-10.540984 10.845888-34.846228 16.421285-73.52554 16.421285z m-96.306262-11.673486c94.259046 11.891275 150.317914 9.23425 166.695642-7.927517a17.423114 17.423114 0 0 0 4.355778-15.942149c-4.834914-27.92054-91.471348-41.859031-231.378951-37.285464h-3.397508a15.33234 15.33234 0 0 0-2.003658 0z" fill="#0069C4" p-id="8572"></path><path d="M217.788923 829.950026l-66.207833 61.590708c-1.611638 2.439236-0.348462 3.702412 3.74597 3.702411 6.141648 0 225.280862 8.711557 241.092337-46.650387Q405.087396 799.154673 217.788923 829.950026z" fill="#00AFFF" p-id="8573"></path><path d="M190.478192 897.90017c-10.715215 0-21.778892 0-32.711896-0.435578h-2.439236c-2.090774 0-5.009145-0.261347-6.185206-2.395678a4.355778 4.355778 0 0 1 0.609809-4.70424l0.348462-0.392021 66.817642-62.069842h0.653367c100.182904-16.551958 157.635622-15.855034 175.407198 2.047215a20.689948 20.689948 0 0 1 5.575396 19.121868c-6.620783 23.129184-46.084136 38.243735-117.388229 44.995191-27.005826 2.526352-57.888296 3.833085-90.687307 3.833085zM153.323402 892.934583a9.190693 9.190693 0 0 0 2.003658 0h2.569909a1051.092898 1051.092898 0 0 0 122.87651-3.441065c68.342164-6.533668 107.631286-20.907737 113.555144-41.6848a16.072822 16.072822 0 0 0-4.355778-15.027436c-16.421285-16.551958-74.048234-16.90042-170.964304-0.958271z" fill="#0069C4" p-id="8574"></path><path d="M194.703297 692.220312Q100.792713 697.447246 6.533668 770.972786q-8.711557 6.315879-0.304905 11.499255a369.457128 369.457128 0 0 0 198.841287 73.743329q110.244753 7.709728 74.875831-158.201873z" fill="#FFFFFF" p-id="8575"></path><path d="M214.478531 858.741722c-3.092603 0-6.272321 0-9.539155-0.348462A373.377329 373.377329 0 0 1 4.92203 784.040121 8.711557 8.711557 0 0 1 0 777.37578a10.236079 10.236079 0 0 1 5.270492-8.145305c62.810325-49.046065 126.535364-75.659872 189.345689-79.144495h0.261347l86.854222 5.880301 0.348463 1.611638c14.330511 67.383893 10.628099 114.164953-11.063678 139.123564-12.718873 14.635416-31.710067 22.040239-56.538004 22.040239z m-19.775234-164.299963c-61.808496 3.441065-124.662379 29.793525-186.819338 78.404012-2.35212 1.698754-3.571738 3.310392-3.528181 4.355778s1.698754 2.569909 3.049045 3.441065a369.413571 369.413571 0 0 0 197.839458 73.394867c28.094771 1.9601 49.133181-4.834914 62.461863-20.167254 20.602832-23.695435 24.131013-68.690626 10.453868-133.765956z" fill="#0069C4" p-id="8576"></path><path d="M208.685346 725.237112q-69.692455-5.967416-130.063545 47.913563c-2.35212 1.829427-2.265005 3.528181 0 5.096261q64.68331 48.349141 131.32672 43.906247t-1.263175-96.916071z" fill="#00D2AA" p-id="8577"></path><path d="M199.102633 824.723092c-41.031433 0-81.888635-15.027436-121.613334-44.733844a5.009145 5.009145 0 0 1-2.744141-4.050874 5.444723 5.444723 0 0 1 2.526352-4.355779C117.606018 735.386076 161.860727 719.051907 209.077366 723.059223h0.958271l0.609809 0.78404c29.445062 40.073162 40.073162 67.514566 32.406992 83.979409-4.355778 9.756944-15.506571 15.288782-32.624781 16.421285-3.876643 0.348462-7.622612 0.479136-11.325024 0.479135zM79.100937 775.764142a3.353949 3.353949 0 0 0 0.871155 0.653367c42.599513 31.84074 86.287971 46.476156 129.976429 43.557785 15.419456-1.001829 25.176399-5.70607 28.965927-13.894934 6.795014-14.5483-3.789527-41.074991-31.361605-78.752474-45.474327-3.571738-88.335187 12.413969-127.493635 47.434427a3.745969 3.745969 0 0 0-0.958271 1.001829z" fill="#0069C4" p-id="8578"></path><path d="M323.068088 683.857217c44.516056 0 128.626138 11.760602 191.654252 31.013143a247.016196 247.016196 0 0 1 59.499933 25.132841c11.934833 7.753286 19.426772 16.029265 19.426772 25.002169 0 9.669828-7.883959 18.947636-20.64639 27.789866-14.983878 10.366753-36.806328 19.993023-62.026285 28.399676C451.99913 840.665241 374.945409 853.732577 323.068088 853.732577c-44.298267 0-77.619972-8.711557-100.182905-22.824279-24.740822-15.463014-36.849886-37.54681-36.849885-62.113401 0-23.39053 15.33234-44.472498 39.811815-59.76128S284.998584 683.857217 323.068088 683.857217z" fill="#FFFFFF" p-id="8579"></path><path d="M323.068088 855.910466c-42.773744 0-76.923047-7.796843-101.533196-23.172741s-37.851715-37.93883-37.851715-63.942828c0-23.303415 14.504742-45.169423 40.813644-61.634265s61.329361-25.481304 98.571267-25.481304c44.472498 0 128.451907 11.629928 192.133387 31.100258 26.134671 8.014632 46.389041 16.551958 60.022627 25.394188s20.428601 17.684461 20.428601 26.831596c0 9.844059-7.056361 19.513887-21.561103 29.575735s-35.543152 19.644561-62.592536 28.661023c-57.670507 19.252541-135.116248 32.668338-188.430976 32.668338z m0-169.87536c-36.414308 0-70.607169 8.711557-96.262704 24.827937-24.958611 15.637245-38.766428 36.196519-38.766428 57.931854 0 24.784379 12.413969 45.605 35.804499 60.240416s57.888296 22.519375 99.224633 22.519375c52.87915 0 129.802198-13.328682 187.037127-32.45055 26.700922-8.711557 47.39087-18.337827 61.503591-28.138329 13.067335-9.016461 19.688119-17.771576 19.688119-26.13467 0-7.448381-6.185205-15.201667-18.424943-23.172742-13.328682-8.711557-33.147474-16.987536-58.933682-24.871495-63.289461-19.208983-146.746176-30.751796-190.870212-30.751796z" fill="#0069C4" p-id="8580"></path><path d="M296.192935 721.970279c5.052703-1.437407 8.711557 0.914713 11.150793 7.012803 0.827598 1.872985 2.918372 2.874814 6.315878 3.049045 2.395678 0.217789 3.920201-0.348462 4.617126-1.742312l1.829426-3.049045c2.700583-4.355778 5.880301-5.880301 9.495598-4.922029l14.504742 6.228763c3.179718 1.56808 4.007316 3.745969 2.526351 6.533668l-1.742311 2.918371a4.050874 4.050874 0 0 0-0.435578 5.401166l2.395678 2.613467a4.094432 4.094432 0 0 0 5.401165 1.17606l2.657025-1.17606a7.404823 7.404823 0 0 1 10.976562 3.789527l4.007316 10.540984c1.045387 4.747799-2.090774 7.709728-9.495597 8.711557-2.308563 0.479136-3.223276 2.961929-2.657025 7.491939 0 1.480965 2.700583 3.310392 7.753286 5.444723a5.31405 5.31405 0 0 1 2.787698 7.317707l-6.620783 10.410311c-2.961929 3.963758-6.228763 5.052703-9.844059 3.223276a13.982049 13.982049 0 0 0-4.965588-2.308563c-1.611638 0-3.833085 1.088945-6.707899 3.658854-1.306734 1.393849-1.17606 3.484623 0.39202 6.359437a5.401165 5.401165 0 0 1 0 5.967416Q335.394941 823.242128 320.977314 824.76665c-3.963758 0-6.620783-2.395678-8.101748-7.66617-0.78404-2.265005-3.092603-3.223276-7.012803-2.918372a4.878472 4.878472 0 0 0-4.094432 2.787699l-2.961929 3.745969c-3.441065 4.355778-10.105406 3.789527-20.080139-1.872985-5.488281-2.395678-6.49011-6.359437-2.961929-11.97839 0.958271-1.655196 1.001829-3.005487 0-4.007317l-0.39202-0.39202-0.522694-0.435578-0.348462-0.304904-0.827598-0.696925-1.045387-0.914713a7.317708 7.317708 0 0 0-7.535496 0.261347 8.711557 8.711557 0 0 1-10.976562-3.441065l-3.528181-7.187035c-0.479136-1.916543-0.740482-3.310392-0.871155-4.355778-0.740482-3.745969 1.785869-6.446552 7.579054-7.971075a10.01829 10.01829 0 0 0 5.401165-7.491939c0.39202-1.524522-1.350291-3.049045-5.270491-4.355778a9.277808 9.277808 0 0 1-5.793186-8.014633c0-1.872985 2.134331-6.054532 6.838572-12.501084 2.74414-3.353949 6.533668-3.658854 11.368582-0.871155a7.66617 7.66617 0 0 0 8.145306-1.001829 5.139819 5.139819 0 0 0 2.482794-5.880301 10.715215 10.715215 0 0 1-2.17789-4.878472q-0.958271-6.272321 17.90225-10.453868z m13.067335 38.461523a13.067335 13.067335 0 1 0 15.593687 12.021949 13.982049 13.982049 0 0 0-15.898591-12.021949z" fill="#00D2AA" p-id="8581"></path><path d="M320.803083 826.944539c-3.571738 0-7.927517-1.655196-10.01829-9.277808-0.348462-1.045387-1.9601-1.524522-4.747799-1.306733-0.435578 0-1.350291 0-2.439236 1.742311l-3.049045 3.963758c-4.355778 5.357607-11.891275 4.92203-22.911394-1.306733a9.408481 9.408481 0 0 1-5.749628-5.793186 11.020119 11.020119 0 0 1 2.047216-9.23425c0-0.348462 0.566251-1.132502 0.304904-1.437407l-2.657024-2.265005c-0.566251-0.39202-2.090774-1.350291-5.444724 0.261347a10.584542 10.584542 0 0 1-13.764259-4.355778l-3.833085-7.883959a37.372579 37.372579 0 0 1-0.871156-4.355779c-0.696925-3.353949 0.348462-8.05819 9.147135-10.366752a8.145306 8.145306 0 0 0 3.833085-5.836744 12.021949 12.021949 0 0 0-3.876643-2.003658 11.455697 11.455697 0 0 1-7.230592-10.105406c0-1.56808 0.609809-4.660683 7.27415-13.76426 2.482794-3.005487 6.88213-5.662512 14.199837-1.480964a5.357607 5.357607 0 0 0 5.836743-0.871156c1.872985-1.437407 1.872985-2.526352 1.698754-3.13616a11.542813 11.542813 0 0 1-2.308563-5.662512c-1.219618-7.27415 10.366753-10.758773 19.208983-12.718873 4.355778-1.219618 10.148964-0.740482 13.720703 8.275979 0.522693 1.263176 2.657025 1.611638 4.355778 1.698753 1.045387 0 2.221447 0 2.526352-0.522693l1.916542-3.223276c4.094432-6.402994 8.711557-6.751457 11.934833-5.923859l15.114551 6.359437a7.622612 7.622612 0 0 1 4.355779 4.355778 6.49011 6.49011 0 0 1-0.696925 5.226934l-1.785869 2.961929c-1.437407 1.916543-0.914713 2.569909-0.566251 3.005488l2.265005 2.439236a2.003658 2.003658 0 0 0 2.874813 0.653366l2.787699-1.263175a9.539155 9.539155 0 0 1 13.851375 4.878471l4.094432 10.715215a8.145306 8.145306 0 0 1-0.958271 6.751457 14.374069 14.374069 0 0 1-10.23608 5.052703c-1.306734 0.261347-0.958271 3.920201-0.827598 5.052703s0.740482 1.263176 6.402995 3.702412a7.448381 7.448381 0 0 1 4.050874 9.974732v0.522694l-6.664341 10.41031c-4.92203 6.577225-10.061848 5.31405-12.675316 3.963759a16.072822 16.072822 0 0 0-4.007316-2.047216c-0.39202 0-1.785869 0-5.183376 3.092603-0.653367 0.696925 0.217789 2.657025 0.78404 3.745969a7.317708 7.317708 0 0 1 0 8.232421c-4.355778 4.92203-11.368582 7.927517-21.43043 8.972904z m-13.546471-14.983878a7.187034 7.187034 0 0 1 7.709728 4.355779c1.56808 5.749628 4.094432 6.359437 5.923859 6.228763 8.711557-0.914713 14.983878-3.397507 18.250711-7.27415 0.39202-0.522693 0.78404-1.56808-0.261346-3.528181-2.613467-4.704241-1.437407-7.448381 0-8.929345a12.109064 12.109064 0 0 1 8.45021-4.355779 15.463014 15.463014 0 0 1 5.880301 2.569909c1.611638 0.78404 4.007316 1.306734 6.969245-2.657024l6.402995-10.018291c0.740482-2.613467 0-3.658854-1.742312-4.355778-6.185205-2.657025-8.711557-4.747799-9.016461-7.27415-0.871156-7.187034 1.916543-9.321366 4.355778-9.800502a11.063677 11.063677 0 0 0 7.361266-3.179718 3.658854 3.658854 0 0 0 0.39202-3.092603l-3.920201-10.236079c-1.698754-3.484623-4.355778-4.355778-8.05819-2.569909l-2.657025 1.17606a6.272321 6.272321 0 0 1-8.145305-1.742312l-2.265005-2.482793a6.185205 6.185205 0 0 1 0.348462-8.232422l1.524523-2.657025a2.439236 2.439236 0 0 0 0.39202-1.785869 3.920201 3.920201 0 0 0-1.960101-1.698753l-14.722531-6.185206c-1.393849-0.348462-3.963758-0.39202-6.838572 4.094432l-1.785869 3.005487a6.054532 6.054532 0 0 1-6.707899 2.787698 8.406652 8.406652 0 0 1-8.101748-4.355778c-2.569909-6.49011-5.923859-6.49011-8.711557-5.749628-15.419456 3.441065-16.072822 6.969246-15.898591 7.971075a7.883959 7.883959 0 0 0 1.785869 4.007316l0.261347 0.522694a7.056361 7.056361 0 0 1-3.179719 8.319536 9.756944 9.756944 0 0 1-10.497426 1.176061c-5.096261-2.918372-7.317708-1.350291-8.711557 0.304904-6.315879 8.711557-6.359437 10.758773-6.359436 10.976562 0 1.045387 0 3.658854 4.704241 6.272321 1.611638 0.566251 7.361266 2.74414 6.272321 6.925687A12.021949 12.021949 0 0 1 258.297662 779.684343c-7.056361 1.916543-6.533668 4.617125-6.359436 5.618954s0.39202 2.177889 0.78404 3.876643l3.441065 6.969246a6.228763 6.228763 0 0 0 8.319537 2.308562 9.103577 9.103577 0 0 1 9.364923 0l3.441065 2.918372a5.31405 5.31405 0 0 1 0.348463 6.795014 7.317708 7.317708 0 0 0-1.611638 5.70607 5.836743 5.836743 0 0 0 3.571738 3.179718c9.016461 5.096261 14.853205 5.880301 17.423114 2.482794l2.918371-3.74597a6.838572 6.838572 0 0 1 5.793186-3.615296z m2.35212-23.216299a15.288782 15.288782 0 1 1-0.827597-30.490449 15.33234 15.33234 0 1 1 2.134331 30.490449z m-0.522693-26.134671a11.020119 11.020119 0 1 0 13.241566 9.974733 11.760602 11.760602 0 0 0-13.067335-9.974733z" fill="#0069C4" p-id="8582"></path><path d="M413.798953 731.77078h11.934833l5.836743 0.217789 5.749628 0.261347 3.745969 0.261346 3.74597 0.261347 3.658853 0.304905 3.615297 0.348462 3.571738 0.39202 3.52818 0.435578 5.183377 0.696924 5.009145 0.740483 3.266834 0.566251 4.747798 0.914713 4.660683 0.958272 4.355779 1.045386 4.355778 1.088945 2.744141 0.740482 2.657025 0.827598 2.613467 0.827598 3.702411 1.263176 2.395678 0.871156a62.853883 62.853883 0 0 1 19.07831 10.715215 15.855034 15.855034 0 0 1 6.228763 11.150792 14.286953 14.286953 0 0 1-4.050874 9.539155 47.042407 47.042407 0 0 1-13.067335 9.756944l-2.047216 1.045387a71.95746 71.95746 0 0 1-6.620783 2.961929l-2.439236 1.001829-3.74597 1.393849-3.963758 1.306734-2.74414 0.871156-2.874814 0.871155-2.918372 0.78404-2.961929 0.78404-3.092603 0.784041-3.13616 0.696924-3.179719 0.696925-3.310391 0.696924-3.310392 0.609809-3.441065 0.609809-3.441065 0.566251-3.52818 0.566252-3.615296 0.479135-5.444723 0.696925-3.74597 0.435578-3.745969 0.39202-3.833085 0.304904-3.876643 0.304905-5.836743 0.39202h-4.007317l-6.010974 0.217789a74.048234 74.048234 0 0 1-12.152622-41.249222 80.146324 80.146324 0 0 1 6.925688-32.668339H413.798953z" fill="#00AFFF" p-id="8583"></path><path d="M414.670109 807.909787l-0.696925-1.001829a76.705259 76.705259 0 0 1-12.501084-42.46884 82.062866 82.062866 0 0 1 7.099919-33.539494l0.566251-1.306733h4.355779l17.858691 0.304904 24.218128 1.829427 17.11821 2.482794 13.982049 2.918372 4.355778 1.088944 8.101748 2.439236 6.185205 2.177889a64.988215 64.988215 0 0 1 19.775234 11.107235 17.815134 17.815134 0 0 1 6.969246 12.762431 16.290611 16.290611 0 0 1-4.355778 10.976562 48.262025 48.262025 0 0 1-13.851376 10.279637l-2.090774 1.045387c-2.134331 1.088945-4.355778 2.090774-6.795014 3.092603l-6.272321 2.395678-15.680802 4.70424-16.159938 3.528181-14.112723 2.221447-20.777063 2.134331z m-2.657025-74.048233a77.924877 77.924877 0 0 0-6.185206 30.490449 72.654385 72.654385 0 0 0 11.107235 39.202006l22.214471-1.393849 19.949465-2.526352 19.688119-3.876642 14.417626-4.007317 10.018291-3.658854c2.265005-0.914713 4.355778-1.916543 6.446552-2.918371l2.047216-1.045387a44.124036 44.124036 0 0 0 12.544642-9.23425 12.152622 12.152622 0 0 0 3.52818-8.05819 13.851375 13.851375 0 0 0-5.488281-9.582713 60.980898 60.980898 0 0 0-18.424943-10.279637l-11.19435-3.74597-2.744141-0.740482-4.355778-1.088945-16.987536-3.397507-20.733505-2.613467-16.639074-1.17606-17.423114-0.304905z" fill="#0069C4" p-id="8584"></path><path d="M403.649989 766.617008h126.317575a2.177889 2.177889 0 0 1 2.17789 2.177889 2.177889 2.177889 0 0 1-2.17789 2.177889h-126.317575a2.177889 2.177889 0 0 1-2.177889-2.177889 2.177889 2.177889 0 0 1 2.177889-2.177889zM133.591725 611.986873h139.384911a2.177889 2.177889 0 0 1 2.177889 2.177889 2.177889 2.177889 0 0 1-2.177889 2.177889h-139.384911a2.177889 2.177889 0 0 1-2.177889-2.177889 2.177889 2.177889 0 0 1 2.177889-2.177889z" fill="#0069C4" p-id="8585"></path><path d="M142.303282 929.9587h139.384911a2.177889 2.177889 0 0 1 2.177889 2.177889 2.177889 2.177889 0 0 1-2.177889 2.177889h-139.384911a2.177889 2.177889 0 0 1-2.177889-2.177889 2.177889 2.177889 0 0 1 2.177889-2.177889zM299.111306 962.627038h104.538683a2.177889 2.177889 0 0 1 2.177889 2.177889 2.177889 2.177889 0 0 1-2.177889 2.177889h-104.538683a2.177889 2.177889 0 0 1-2.177889-2.177889 2.177889 2.177889 0 0 1 2.177889-2.177889zM386.226875 899.46825h104.538683a2.177889 2.177889 0 0 1 2.177889 2.17789 2.177889 2.177889 0 0 1-2.177889 2.177889h-104.538683a2.177889 2.177889 0 0 1-2.177889-2.177889 2.177889 2.177889 0 0 1 2.177889-2.17789z" fill="#0069C4" p-id="8586"></path><path d="M434.140438 864.622023h21.778893a2.177889 2.177889 0 0 1 2.177889 2.177889 2.177889 2.177889 0 0 1-2.177889 2.177889h-21.778893a2.177889 2.177889 0 0 1-2.177889-2.177889 2.177889 2.177889 0 0 1 2.177889-2.177889z" fill="#0069C4" p-id="8587"></path><path d="M33.408821 675.14566h91.471347a2.177889 2.177889 0 0 1 2.177889 2.177889 2.177889 2.177889 0 0 1-2.177889 2.17789h-91.471347a2.177889 2.177889 0 0 1-2.177889-2.17789 2.177889 2.177889 0 0 1 2.177889-2.177889z" fill="#0069C4" p-id="8588"></path><path d="M37.764599 871.155691h91.471348a2.177889 2.177889 0 0 1 2.177889 2.177889 2.177889 2.177889 0 0 1-2.177889 2.177889h-91.471348a2.177889 2.177889 0 0 1-2.177889-2.177889 2.177889 2.177889 0 0 1 2.177889-2.177889z" fill="#0069C4" p-id="8589"></path><path d="M368.803762 627.232097h104.538682a2.177889 2.177889 0 0 1 2.17789 2.177889 2.177889 2.177889 0 0 1-2.17789 2.17789h-104.538682a2.177889 2.177889 0 0 1-2.17789-2.17789 2.177889 2.177889 0 0 1 2.17789-2.177889z" fill="#0069C4" p-id="8590"></path><path d="M425.428881 668.611992h26.134671a2.177889 2.177889 0 0 1 2.177889 2.17789 2.177889 2.177889 0 0 1-2.177889 2.177889h-26.134671a2.177889 2.177889 0 0 1-2.177889-2.177889 2.177889 2.177889 0 0 1 2.177889-2.17789z" fill="#0069C4" p-id="8591"></path><path d="M233.77463 577.140645h26.13467a2.177889 2.177889 0 0 1 2.177889 2.177889 2.177889 2.177889 0 0 1-2.177889 2.177889h-26.13467a2.177889 2.177889 0 0 1-2.17789-2.177889 2.177889 2.177889 0 0 1 2.17789-2.177889z" fill="#0069C4" p-id="8592"></path><path d="M244.664076 962.627038h26.13467a2.177889 2.177889 0 0 1 2.17789 2.177889 2.177889 2.177889 0 0 1-2.17789 2.177889h-26.13467a2.177889 2.177889 0 0 1-2.17789-2.177889 2.177889 2.177889 0 0 1 2.17789-2.177889z" fill="#0069C4" p-id="8593"></path><path d="M290.399749 577.140645h104.538683a2.177889 2.177889 0 0 1 2.17789 2.177889 2.177889 2.177889 0 0 1-2.17789 2.177889h-104.538683a2.177889 2.177889 0 0 1-2.177889-2.177889 2.177889 2.177889 0 0 1 2.177889-2.177889z" fill="#0069C4" p-id="8594"></path></svg>