<?xml version="1.0" standalone="no"?><!DOCTYPE svg PUBLIC "-//W3C//DTD SVG 1.1//EN" "http://www.w3.org/Graphics/SVG/1.1/DTD/svg11.dtd"><svg t="1699251759348" class="icon" viewBox="0 0 1024 1024" version="1.1" xmlns="http://www.w3.org/2000/svg" p-id="3547" xmlns:xlink="http://www.w3.org/1999/xlink" width="16" height="16"><path d="M163.528 346.867h698.926c36.189 0 65.524-29.338 65.524-65.525 0-36.189-29.335-65.524-65.524-65.524H163.528c-36.189 0-65.525 29.335-65.525 65.524 0 36.188 29.336 65.525 65.525 65.525z m698.926 131.049H163.528c-36.189 0-65.525 29.335-65.525 65.525 0 36.187 29.335 65.524 65.525 65.524h698.926c36.189 0 65.524-29.338 65.524-65.524 0-36.189-29.335-65.525-65.524-65.525z m0 262.098H163.528c-36.189 0-65.525 29.335-65.525 65.524 0 36.187 29.335 65.524 65.525 65.524h698.926c36.189 0 65.524-29.337 65.524-65.524 0-36.188-29.335-65.524-65.524-65.524z" fill="#5E9DF3" p-id="3548"></path><path d="M163.528 215.818c36.187 0 65.525 29.338 65.525 65.525 0 36.189-29.338 65.525-65.525 65.525-36.189 0-65.524-29.335-65.524-65.525-0.001-36.187 29.335-65.525 65.524-65.525zM163.587 740.014c36.187 0 65.524 29.335 65.524 65.524 0 36.187-29.337 65.525-65.524 65.525-36.189 0-65.524-29.338-65.524-65.525 0-36.188 29.335-65.524 65.524-65.524zM862.454 477.916c36.189 0 65.524 29.337 65.524 65.525 0 36.189-29.335 65.524-65.524 65.524-36.187 0-65.522-29.335-65.522-65.524-0.001-36.187 29.335-65.525 65.522-65.525z" fill="#3080EE" p-id="3549"></path></svg>