<?xml version="1.0" standalone="no"?><!DOCTYPE svg PUBLIC "-//W3C//DTD SVG 1.1//EN" "http://www.w3.org/Graphics/SVG/1.1/DTD/svg11.dtd"><svg t="1699252115976" class="icon" viewBox="0 0 1024 1024" version="1.1" xmlns="http://www.w3.org/2000/svg" p-id="24577" xmlns:xlink="http://www.w3.org/1999/xlink" width="16" height="16"><path d="M960.3 512c-1.7 382.4-64 448.5-448.3 448.3C127.6 960.2 63 896 63.6 512S127.5 62.7 512 63.7c384.5 0.9 450 65.9 448.3 448.3z" fill="#FFAE00" p-id="24578"></path><path d="M910.5 512C909 851.9 853.6 910.7 512 910.5S112.9 853.4 113.5 512 170.2 112.6 512 113.5c341.7 0.8 400 58.6 398.5 398.5z" fill="#FD6500" p-id="24579"></path><path d="M224.3 868.7c60.2 32.7 151.3 41.8 287.7 41.9 341.6 0.1 397-58.6 398.5-398.5 0.5-110.1-5.3-190.5-24.9-249.1-5.6 0.4-499.6 43.1-661.3 605.7z" fill="#FD6500" p-id="24580"></path><path d="M560.2 415.7c7.2-12.1 13.9-22.4 19.7-34.5h19.7c11.7 15.2 35.9 50.2 45.7 64.6l31.4-26.9c-5.8-8.5-17.9-23.8-28.7-37.7h65.9v-39.5h-116c4.9-10.3 8.5-21.1 12.6-31.8l-39.9-6.7c-11.2 30-25.6 64.1-45.7 95.1l35.3 17.4z m-146.2-35c8.5 12.1 30 41.7 39.9 57.4l30.9-26.9c-5.4-7.6-14.4-19.7-22.9-30.5h70.9v-39H431.5c5.4-10.3 9.9-20.6 13.9-29.6l-42.6-7.6c-13.9 34.1-44.4 88.8-75.3 119.7l35.9 25.1c16.1-19.3 32.3-43.5 47.1-68.6h3.5z m-16.1 166h110.8L476 562.4c14.4 23.8 35 66.8 40.8 84.8l40.8-20.2c-7.2-17.5-26.5-56.5-40.8-80.3h130.1v-22c19.3 8.5 38.6 17 58.7 24.7l17-40.4C636 480.3 581.3 450.2 545 411.2h-44.9c-37.2 38.1-91.9 69.1-178 97.8l17 40.4c20.2-8.5 39.5-16.6 58.8-25.1v22.4z m124.7-99.6c22.9 21.1 54.3 42.2 92.4 61.9H428.8c39.5-20.2 72.2-41.7 93.8-61.9z m104.9 101.8c-16.6 32.3-42.6 78-65.5 110.8H334.2v37.7h375.4v-37.7H615c17.9-28.7 38.1-61.9 53.8-88.4l-41.3-22.4z m-170.9 87.5c-7.2-18.4-31.4-61.9-45.7-86.1l-39 19.3c15.2 23.8 38.6 68.2 44.4 87l40.3-20.2z" fill="#FFFFFF" p-id="24581"></path></svg>