<?xml version="1.0" standalone="no"?><!DOCTYPE svg PUBLIC "-//W3C//DTD SVG 1.1//EN" "http://www.w3.org/Graphics/SVG/1.1/DTD/svg11.dtd"><svg t="1699252508778" class="icon" viewBox="0 0 1024 1024" version="1.1" xmlns="http://www.w3.org/2000/svg" p-id="32264" xmlns:xlink="http://www.w3.org/1999/xlink" width="16" height="16"><path d="M873 587.1l-51.2-29.4c2.6-14.9 3.8-30.3 3.8-45.7s-1.3-30.7-3.8-45.7l51.2-29.4c17.1-10.2 29.4-26 34.6-45.7 5.5-19.2 2.6-39.3-7.3-56.3l-40.5-70.4c-10.2-17.5-26-29.9-45.7-35-19.2-5.1-39.3-2.6-56.3 7.7l-51.2 29.4c-23.9-19.2-50.3-34.6-79.4-46.1v-58.9c0-41-33.3-74.7-74.7-74.7h-81.1c-41.4 0-74.7 33.7-74.7 74.7v58.9c-29 11.5-55.5 26.9-79.4 46.1l-51.2-29.4c-17.1-10.2-37.1-12.8-56.3-7.7-19.6 5.1-35.4 17.5-45.7 35l-40.5 70.4c-9.8 17.1-12.8 37.1-7.3 56.3 5.1 19.6 17.5 35.4 34.6 45.7l51.2 29.4c-2.6 14.9-3.8 30.3-3.8 45.7s1.3 30.7 3.8 45.7L151 587.1c-17.1 10.2-29.4 26-34.6 45.7-5.5 19.2-2.6 39.3 7.3 56.3l40.5 70.4c10.2 17.5 26 29.9 45.7 35 6.4 1.7 12.8 2.6 19.2 2.6 12.8 0 25.6-3.4 37.1-10.2l51.2-29.4c23.9 19.2 50.3 34.6 79.4 46.1v58.9c0 41 33.3 74.7 74.7 74.7h81.1c41.4 0 74.7-33.7 74.7-74.7v-58.9c29-11.5 55.5-26.9 79.4-46.1l51.2 29.4c11.5 6.8 24.3 10.2 37.1 10.2 6.4 0 12.8-0.9 19.2-2.6 19.6-5.1 35.4-17.5 45.7-35l40.5-70.4c9.8-17.1 12.8-37.1 7.3-56.3-5.3-19.7-17.7-35.5-34.7-45.7z m-28.2 70l-40.5 70.4c-2.1 3.4-5.1 4.7-6.4 5.1-1.7 0.4-4.7 0.9-8.1-1.3L754 710.8l-56-32.4c-15.4 17.1-32.9 32-52.1 43.9-6 4.3-12.4 8.1-18.8 11.1-19.6 10.7-41.4 18.3-64 23V862.2c0 5.5-4.7 10.7-10.7 10.7h-81.1c-6 0-10.7-5.1-10.7-10.7V756.4c-22.6-4.7-44.4-12.4-64-23-6.4-3-12.8-6.8-18.8-11.1-19.2-11.9-36.7-26.9-52.1-43.9l-55.9 32.4-35.8 20.5c-3.4 2.1-6.4 1.7-8.1 1.3-1.3-0.4-4.3-1.7-6.4-5.1L179 657.1c-2.1-3-1.3-6.4-1.3-8.1 0.9-1.3 1.7-4.3 5.1-6.4l35.8-20.5 55.9-32.4c-6.8-20.9-11.1-43.5-11.9-67-0.4-3.4-0.4-7.3-0.4-10.7 0-3.4 0-7.3 0.4-10.7 0.9-23.5 5.1-46.1 11.9-67l-55.9-32.4-35.6-20.5c-3.4-2.1-4.3-5.1-5.1-6.4 0-1.7-0.9-5.1 1.3-8.1l40.5-70.4c2.1-3.4 5.1-4.7 6.4-5.1 0.9 0 1.7-0.4 3-0.4s3.4 0.4 5.1 1.7l35.8 20.5 55.9 32.4c15.4-17.1 32.9-32 52.1-43.9 6-4.3 12.4-8.1 18.8-11.1 19.6-10.7 41.4-18.3 64-22.6V161.7c0-5.5 4.7-10.7 10.7-10.7h81.1c6 0 10.7 5.1 10.7 10.7V268c22.6 4.3 44.4 11.9 64 22.6 6.4 3 12.8 6.8 18.8 11.1 19.2 11.9 36.7 26.9 52.1 43.9l55.9-32.4 35.8-20.5c1.7-1.3 3.8-1.7 5.1-1.7 1.3 0 2.1 0.4 3 0.4 1.3 0.4 4.3 1.7 6.4 5.1l40.5 70.4c2.1 3 1.3 6.4 1.3 8.1-0.9 1.3-1.7 4.3-5.1 6.4l-35.8 20.5-55.9 32.4c6.8 20.9 11.1 43.5 11.9 67 0.4 3.4 0.4 7.3 0.4 10.7 0 3.4 0 7.3-0.4 10.7-0.9 23.5-5.1 46.1-11.9 67l55.9 32.4 35.8 20.5c3.4 2.1 4.3 5.1 5.1 6.4-0.1 1.7 0.7 5.1-1.4 8.1z" fill="#1296db" p-id="32265"></path><path d="M512 661.1c-82.2 0-149.1-66.9-149.1-149.1S429.8 362.9 512 362.9 661.1 429.8 661.1 512 594.2 661.1 512 661.1z m0-234.2c-46.9 0-85.1 38.2-85.1 85.1s38.2 85.1 85.1 85.1 85.1-38.2 85.1-85.1-38.2-85.1-85.1-85.1z" fill="#1296db" p-id="32266"></path></svg>