<svg t="1701136649264" class="icon" viewBox="0 0 1084 1024" version="1.1" xmlns="http://www.w3.org/2000/svg" p-id="12570" width="200" height="200"><path d="M1084.005059 281.478095C1078.714392 128.329143 951.823726 12.190476 797.492297 0.646095c-225.913905-16.896-335.030857 304.274286-384.341333 236.495238l-0.097524-0.097523c-61.854476-69.997714-113.408-93.44-191.829333-90.721524C98.075916 150.601143-0.679131 252.68419 0.003535 374.698667c0.24381 43.02019 12.55619 83.2 33.755429 117.394285 14.384762 23.222857 364.702476 404.224 364.702476 404.224l117.881905-125.330285s-83.98019-25.258667-176.103619-99.230477c-92.111238-73.97181-88.283429-184.027429-108.763429-246.211047-17.798095-54.076952-77.848381-60.537905-93.208381-61.305905a5.668571 5.668571 0 0 1-5.266286-4.205714c-2.023619-8.17981-1.29219-28.562286 37.083429-60.440381 51.163429-42.50819 110.994286-9.642667 110.994286-9.642667s47.225905 41.130667 79.494095 68.681143c32.280381 27.550476 99.181714 18.895238 113.359238 8.655238 14.165333-10.24 74.179048-73.752381 74.179048-73.752381l152.563809-166.41219a38.229333 38.229333 0 0 1 29.817905-12.348953L782.632107 117.028571c4.510476 0.182857 6.704762 5.558857 3.644952 8.862477L623.912107 300.495238a10.971429 10.971429 0 0 0 0.097523 15.067429l5.180953 5.424762a10.971429 10.971429 0 0 0 16.042667-0.170667l151.954285-165.729524a39.838476 39.838476 0 0 1 31.085715-12.873143l54.357333 2.352762a5.497905 5.497905 0 0 1 3.779047 9.240381L687.765821 367.396571a10.99581 10.99581 0 0 0 0.085333 15.079619l3.181715 3.328a10.99581 10.99581 0 0 0 16.054857-0.158476L860.626773 217.35619a41.74019 41.74019 0 0 1 32.536381-13.470476l56.892953 2.474667a5.766095 5.766095 0 0 1 3.961904 9.679238l-209.432381 225.889524 16.11581 16.871619 119.82019-130.681905a41.691429 41.691429 0 0 1 32.536381-13.482667l56.892953 2.474667a5.753905 5.753905 0 0 1 3.961905 9.667048L747.365059 570.368l-311.393524 359.375238-2.279619 5.632 74.837334 82.919619a17.322667 17.322667 0 0 0 25.782857-0.109714s484.705524-542.45181 497.688381-561.030095l0.243809-0.268191-0.060952 0.012191a287.744 287.744 0 0 0 51.809524-175.420953" fill="#ffffff" p-id="12571"></path></svg>