<svg t="1701136540220" class="icon" viewBox="0 0 1024 1024" version="1.1" xmlns="http://www.w3.org/2000/svg" p-id="9054" width="200" height="200"><path d="M541.541 499.932V326.635c0-16.568-13.432-30-30-30s-30 13.432-30 30v185.723l0.002 0.082c0.001 0.467 0.012 0.934 0.035 1.4 0.012 0.241 0.034 0.479 0.052 0.719 0.018 0.247 0.032 0.495 0.056 0.741 0.029 0.301 0.069 0.598 0.107 0.896 0.023 0.183 0.043 0.366 0.07 0.549 0.047 0.322 0.104 0.64 0.162 0.959 0.029 0.159 0.054 0.319 0.085 0.478 0.063 0.322 0.136 0.64 0.21 0.958 0.036 0.158 0.07 0.315 0.109 0.473 0.076 0.308 0.161 0.612 0.247 0.916 0.048 0.169 0.093 0.338 0.144 0.507 0.085 0.283 0.178 0.562 0.271 0.841 0.064 0.191 0.126 0.382 0.194 0.572 0.089 0.25 0.185 0.497 0.281 0.744 0.084 0.217 0.167 0.433 0.256 0.648 0.089 0.215 0.184 0.426 0.277 0.639 0.107 0.243 0.214 0.486 0.328 0.726 0.086 0.181 0.177 0.359 0.266 0.538 0.132 0.264 0.264 0.527 0.404 0.788 0.083 0.154 0.17 0.306 0.256 0.459 0.155 0.277 0.31 0.553 0.475 0.825 0.082 0.136 0.168 0.269 0.252 0.403 0.175 0.28 0.35 0.559 0.535 0.835 0.088 0.131 0.181 0.259 0.271 0.389 0.187 0.269 0.373 0.537 0.569 0.801 0.107 0.144 0.22 0.284 0.33 0.426 0.187 0.242 0.373 0.485 0.568 0.723 0.146 0.177 0.299 0.349 0.449 0.523 0.169 0.196 0.333 0.394 0.508 0.586 0.272 0.301 0.554 0.593 0.838 0.882 0.061 0.062 0.118 0.127 0.18 0.189l131.327 131.325c5.857 5.858 13.535 8.787 21.213 8.787s15.355-2.929 21.213-8.787c11.716-11.716 11.716-30.71 0-42.426l-122.54-122.54z" p-id="9055" fill="#ffffff"></path><path d="M871.34 360.185c-19.645-46.444-47.761-88.149-83.568-123.957-35.808-35.808-77.513-63.924-123.957-83.568C615.714 132.315 564.637 122 512 122s-103.714 10.315-151.815 30.66c-46.444 19.645-88.149 47.761-123.957 83.568-35.808 35.807-63.924 77.512-83.568 123.957C132.315 408.286 122 459.363 122 512s10.315 103.714 30.66 151.814c19.645 46.444 47.761 88.149 83.568 123.957 35.807 35.808 77.512 63.924 123.957 83.568C408.286 891.685 459.363 902 512 902s103.714-10.315 151.814-30.66c46.444-19.645 88.149-47.761 123.957-83.568s63.924-77.513 83.568-123.957C891.685 615.714 902 564.637 902 512s-10.315-103.714-30.66-151.815zM512 842c-181.963 0-330-148.037-330-330s148.037-330 330-330 330 148.037 330 330-148.037 330-330 330z" p-id="9056" fill="#ffffff"></path></svg>